<svg id="Capa_1" enable-background="new 0 0 513 513" height="512" viewBox="0 0 513 513" width="512" xmlns="http://www.w3.org/2000/svg"><g><g><g><path d="m505 156.298c0-35.417-28.712-64.129-64.129-64.129-7.816 0-15.272 1.468-22.199 4.028-38.121-41.873-93.068-68.157-154.156-68.157-63.697 0-120.682 28.606-158.912 73.635-9.753-5.991-21.19-9.506-33.475-9.506-35.417 0-64.129 28.712-64.129 64.129 0 30.166 20.856 55.397 48.915 62.238-.504 5.913-.819 11.88-.819 17.924 0 113.345 90.495 205.491 203.167 208.287 15.27 10.199 33.608 16.165 53.349 16.165 44.322 0 81.542-30.017 92.695-70.801 41.559-38.101 67.628-92.826 67.628-153.651 0-8.065-.505-16.007-1.396-23.833 19.934-10.877 33.461-32.021 33.461-56.329z" fill="#00d2dc"/></g><g><g><path d="m292.816 435.029c-94.001-12.382-168.816-88.946-179.302-183.178-3.698-33.236.615-64.991 11.05-93.829 7.487-20.691.152-44.389-18.501-56.061-10.036-6.347-21.998-9.707-33.935-9.792-35.416 0-64.128 28.712-64.128 64.129 0 30.166 20.856 55.397 48.915 62.238-.504 5.913-.819 11.88-.819 17.924 0 113.345 90.495 205.491 203.167 208.287 15.27 10.199 33.608 16.165 53.349 16.165 29.711 0 56.184-13.529 73.799-34.707-28.907 9.612-60.578 13.173-93.595 8.824z" fill="#0096d2"/></g></g><g><path d="m380.75 164.315c-15.425 0-29.488 6.975-40.129 18.437-8.325 8.968-20.309 13.627-32.545 13.627h-2.867c-12.047 0-23.275-5.102-32.173-13.223-12.94-11.811-30.193-18.974-49.125-18.839-38.226.272-70.532 31.881-71.591 70.093-1.131 40.781 31.591 74.195 72.117 74.195 2.487 0 91.13-.372 139.147-.574 19.763-.083 39.057-5.718 55.772-16.261 13.153-13.235 21.516-33.1 21.516-55.31-.001-39.845-26.918-72.145-60.122-72.145z" fill="#beebeb"/></g><g><circle cx="312.613" cy="364.718" fill="#beebeb" r="96.194"/></g><g><path d="m336.661 444.879c-53.126 0-96.194-43.068-96.194-96.194 0-28.2 12.21-53.485 31.542-71.08-32.806 15.32-55.59 48.515-55.59 87.112 0 53.126 43.067 96.194 96.194 96.194 24.927 0 47.564-9.562 64.653-25.115-12.35 5.768-26.075 9.083-40.605 9.083z" fill="#00d2dc"/></g><g><circle cx="224.435" cy="236.46" fill="#0096d2" r="24.048"/></g><g><circle cx="384.758" cy="236.46" fill="#0096d2" r="24.048"/></g><g><circle cx="239.132" cy="222.431" fill="#fff" r="12.024"/></g><g><circle cx="398.716" cy="222.431" fill="#fff" r="12.024"/></g><g><circle cx="72.129" cy="156.298" fill="#00d2dc" r="32.065"/></g><path d="m288.564 429.198v23.698c0 17.709 14.356 32.064 32.065 32.064 17.709 0 32.064-14.356 32.064-32.064v-28.725z" fill="#0096d2"/></g><g fill="#283c64"><path d="m513 156.298c0-39.772-32.357-72.129-72.129-72.129-6.771 0-13.439.944-19.879 2.788-1.135-1.186-2.28-2.365-3.444-3.529-40.876-40.876-95.224-63.388-153.032-63.388-61.374 0-119.671 26.004-160.716 71.495-9.75-4.771-20.57-7.366-31.671-7.366-39.772 0-72.129 32.357-72.129 72.129 0 31.473 20.271 58.286 48.436 68.112-.22 4.01-.339 8.042-.339 12.049 0 56.784 21.829 110.44 61.466 151.085 39.149 40.145 91.398 63.243 147.295 65.187 7.78 4.947 16.298 8.895 25.397 11.663 4.955 16.503 20.279 28.565 38.375 28.565 20.603 0 37.616-15.634 39.817-35.66 16.204-8.383 29.936-20.866 39.849-36.274 5.354-8.321 9.452-17.302 12.229-26.685 21.22-19.896 37.967-43.396 49.767-69.877 12.371-27.762 18.644-57.371 18.644-88.004 0-6.583-.307-13.117-.884-19.595 20.67-13.369 32.948-35.851 32.948-60.566zm-118.594 241.219c-23.063 12.563-50.787 19.575-80.251 20.27-29.852.704-58.125-5.133-81.909-16.86-5.038-11.147-7.826-23.435-7.826-36.21 0-48.63 39.563-88.193 88.193-88.193s88.194 39.563 88.194 88.193c0 11.405-2.253 22.518-6.401 32.8zm-113.842 34.38v14.994c-12.697-4.954-23.84-12.718-32.781-22.449 10.458 3.393 21.435 5.892 32.781 7.455zm40.065 45.062c-13.269 0-24.064-10.795-24.064-24.064v-19.44c4.223.25 8.481.389 12.773.389 1.093 0 2.193-.022 3.292-.039v19.09c0 4.418 3.582 8 8 8s8-3.582 8-8v-19.92c5.426-.482 10.788-1.154 16.064-2.037v21.957c-.001 13.269-10.796 24.064-24.065 24.064zm40.064-38.316v-11.057c6.594-1.668 13.011-3.675 19.233-5.986-5.502 6.537-11.97 12.296-19.233 17.043zm86.984-120.692c-7.938 17.813-18.302 34.165-30.907 48.849.014-.694.037-1.387.037-2.082 0-57.453-46.741-104.193-104.194-104.193-33.149 0-62.73 15.562-81.827 39.762-2.104.208-4.23.319-6.35.319-17.47 0-33.802-6.898-45.986-19.425-12.179-12.521-18.619-29.052-18.134-46.548.454-16.394 7.364-31.942 19.457-43.779 12.092-11.836 27.787-18.419 44.194-18.536.155-.001.308-.002.463-.002 16.037 0 31.369 5.939 43.213 16.75 10.819 9.875 24.161 15.314 37.567 15.314h2.866c14.861 0 28.861-5.899 38.409-16.184 9.506-10.241 21.675-15.88 34.266-15.88 28.74 0 52.121 28.775 52.121 64.145 0 19.295-6.995 37.399-19.191 49.67-3.114 3.134-3.099 8.199.035 11.314 3.134 3.114 8.199 3.099 11.314-.035 15.152-15.245 23.842-37.46 23.842-60.949 0-44.192-30.559-80.145-68.121-80.145-17.09 0-33.424 7.456-45.992 20.995-6.53 7.035-16.256 11.07-26.682 11.07h-2.866c-9.405 0-18.916-3.954-26.78-11.132-14.944-13.641-34.287-21.046-54.577-20.931-42.672.304-78.35 35.237-79.531 77.872-.605 21.852 7.441 42.502 22.659 58.147 14.25 14.65 33.042 23.137 53.291 24.162-7.564 14.427-11.852 30.831-11.852 48.22 0 26.552 10.154 51.344 27.169 70.088-43.433-6.256-83.466-26.534-114.571-58.431-36.706-37.64-56.921-87.33-56.921-139.915 0-2.815.062-5.645.179-8.468 2.581.281 5.199.435 7.854.435 4.89 0 9.778-.493 14.528-1.465 4.329-.886 7.12-5.113 6.233-9.441-.885-4.329-5.113-7.119-9.441-6.233-3.697.756-7.505 1.14-11.32 1.14-30.95 0-56.129-25.179-56.129-56.129s25.179-56.129 56.129-56.129c17.921 0 34.915 8.671 45.458 23.196 2.596 3.576 7.599 4.37 11.174 1.774s4.37-7.598 1.774-11.174c-3.755-5.173-8.15-9.766-13.029-13.706 37.906-40.894 91.077-64.22 147.01-64.22 110.512 0 200.419 89.908 200.419 200.419-.001 28.374-5.808 55.792-17.26 81.491zm29.992-119.248c-6.281-35.906-21.516-69.454-44.583-97.988 2.567-.356 5.165-.545 7.785-.545 30.95 0 56.129 25.179 56.129 56.129 0 16.561-7.089 31.835-19.331 42.404z"/><path d="m72.129 116.234c-22.092 0-40.064 17.973-40.064 40.064s17.973 40.064 40.064 40.064 40.064-17.973 40.064-40.064-17.972-40.064-40.064-40.064zm0 64.129c-13.269 0-24.064-10.795-24.064-24.064s10.795-24.064 24.064-24.064 24.064 10.795 24.064 24.064-10.795 24.064-24.064 24.064z"/><path d="m248.484 228.459c-4.418 0-8 3.582-8 8 0 8.849-7.199 16.049-16.048 16.049s-16.048-7.2-16.048-16.049 7.199-16.048 16.048-16.048c4.418 0 8-3.582 8-8s-3.582-8-8-8c-17.671 0-32.048 14.377-32.048 32.048 0 17.672 14.377 32.049 32.048 32.049s32.048-14.377 32.048-32.049c0-4.418-3.582-8-8-8z"/><path d="m408.807 228.459c-4.418 0-8 3.582-8 8 0 8.849-7.199 16.049-16.048 16.049s-16.049-7.2-16.049-16.049 7.2-16.048 16.049-16.048c4.418 0 8-3.582 8-8s-3.582-8-8-8c-17.672 0-32.049 14.377-32.049 32.048 0 17.672 14.377 32.049 32.049 32.049 17.671 0 32.048-14.377 32.048-32.049 0-4.418-3.582-8-8-8z"/><path d="m337.618 301.915c-6.881 4.513-13.312 6.706-19.661 6.706s-12.78-2.193-19.661-6.706c-3.694-2.421-8.653-1.392-11.077 2.303-2.423 3.695-1.392 8.654 2.303 11.077 9.437 6.188 19.004 9.326 28.436 9.326s18.999-3.138 28.436-9.326c3.694-2.423 4.726-7.382 2.303-11.077-2.425-3.695-7.384-4.725-11.079-2.303z"/></g></g></svg>